<?xml version="1.0" standalone="no"?>
<!DOCTYPE svg PUBLIC "-//W3C//DTD SVG 20010904//EN"
 "http://www.w3.org/TR/2001/REC-SVG-20010904/DTD/svg10.dtd">
<svg version="1.0" xmlns="http://www.w3.org/2000/svg"
 width="423.000000pt" height="424.000000pt" viewBox="0 0 423.000000 424.000000"
 preserveAspectRatio="xMidYMid meet">

<g transform="translate(0.000000,424.000000) scale(0.100000,-0.100000)"
fill="#000000" stroke="none">
<path d="M2035 3803 c-169 -22 -364 -82 -508 -155 -87 -45 -243 -140 -257
-157 -3 -3 -27 -24 -55 -46 -64 -51 -159 -146 -210 -210 -22 -28 -43 -52 -46
-55 -4 -3 -30 -41 -59 -85 -110 -169 -198 -387 -237 -585 -27 -144 -25 -478 5
-613 45 -204 126 -399 233 -562 29 -44 55 -82 58 -85 3 -3 23 -26 44 -53 182
-226 455 -411 748 -507 159 -52 254 -65 479 -65 227 0 287 7 440 52 238 69
412 161 598 317 96 81 216 210 227 245 8 27 -23 80 -52 87 -13 4 -51 1 -86 -5
-92 -16 -297 -13 -402 5 -449 77 -828 405 -974 840 -58 173 -76 400 -46 588
17 112 67 271 112 360 25 50 102 176 113 186 3 3 17 21 32 40 70 93 196 206
316 283 73 47 91 74 77 117 -11 33 -44 48 -135 59 -79 10 -349 13 -415 4z"/>
</g>
</svg>
