<?xml version="1.0" standalone="no"?>
<!DOCTYPE svg PUBLIC "-//W3C//DTD SVG 20010904//EN"
 "http://www.w3.org/TR/2001/REC-SVG-20010904/DTD/svg10.dtd">
<svg version="1.0" xmlns="http://www.w3.org/2000/svg"
 width="423.000000pt" height="423.000000pt" viewBox="0 0 423.000000 423.000000"
 preserveAspectRatio="xMidYMid meet">

<g transform="translate(0.000000,423.000000) scale(0.100000,-0.100000)"
fill="#000000" stroke="none">
<path d="M2089 3732 c-34 -22 -60 -49 -63 -65 -1 -6 -6 -19 -11 -27 -5 -8 -10
-21 -11 -27 -1 -7 -9 -20 -18 -29 -9 -8 -14 -19 -11 -24 3 -5 1 -10 -5 -12 -6
-2 -12 -13 -15 -26 -2 -12 -11 -29 -20 -38 -8 -9 -13 -19 -10 -24 3 -5 1 -10
-5 -12 -6 -2 -12 -14 -15 -27 -2 -14 -9 -27 -15 -31 -6 -4 -13 -17 -15 -30 -2
-13 -8 -26 -12 -29 -5 -3 -9 -13 -11 -21 -2 -8 -11 -23 -19 -32 -9 -10 -12
-18 -7 -18 5 0 3 -4 -4 -8 -7 -5 -14 -19 -17 -32 -2 -12 -11 -30 -20 -40 -8
-9 -12 -20 -8 -23 3 -4 1 -7 -6 -7 -7 0 -9 -4 -6 -10 3 -5 1 -10 -5 -10 -6 0
-9 -4 -6 -8 2 -4 1 -14 -4 -22 -8 -12 -13 -13 -30 -2 -11 6 -28 12 -38 12 -10
0 -22 3 -26 7 -3 4 -14 8 -22 9 -9 1 -23 6 -32 10 -9 4 -20 8 -24 8 -3 1 -10
4 -14 9 -4 4 -17 7 -29 7 -12 0 -25 3 -29 7 -3 4 -16 8 -28 10 -11 2 -35 10
-53 19 -19 9 -42 17 -52 19 -10 2 -18 4 -18 5 0 1 -11 3 -24 6 -13 2 -38 11
-56 20 -19 9 -42 17 -52 19 -10 2 -19 4 -20 5 -3 3 -3 3 -53 14 -19 5 -39 11
-45 14 -14 8 -48 7 -63 -2 -6 -4 -12 -4 -12 -1 0 4 -11 -7 -25 -23 -26 -31
-44 -122 -24 -122 6 0 8 -4 4 -9 -3 -5 0 -13 6 -16 5 -4 8 -13 5 -21 -3 -8 0
-14 6 -14 6 0 9 -3 5 -6 -3 -4 1 -20 9 -36 9 -17 13 -32 10 -36 -3 -3 1 -16 9
-29 9 -13 13 -28 10 -33 -3 -6 -1 -10 6 -10 7 0 10 -3 6 -6 -3 -4 1 -20 9 -36
8 -16 12 -33 9 -38 -3 -6 -1 -10 5 -10 6 0 9 -4 5 -9 -3 -5 0 -13 6 -16 5 -4
8 -13 5 -21 -3 -8 0 -14 6 -14 6 0 9 -3 5 -6 -3 -4 1 -20 9 -36 9 -17 13 -32
10 -35 -3 -3 0 -15 7 -27 6 -11 13 -32 14 -45 1 -13 7 -27 14 -31 16 -11 18
-86 2 -83 -7 2 -13 -2 -13 -8 0 -5 -4 -8 -9 -4 -5 3 -15 0 -23 -7 -7 -7 -20
-14 -28 -16 -8 -2 -17 -8 -18 -13 -2 -5 -8 -7 -13 -3 -5 3 -9 0 -9 -5 0 -6 -9
-11 -20 -11 -11 0 -20 -5 -20 -11 0 -5 -4 -8 -9 -4 -5 3 -16 -1 -24 -9 -8 -8
-17 -12 -21 -9 -3 4 -6 1 -6 -6 0 -7 -4 -10 -9 -6 -5 3 -17 -2 -25 -11 -9 -8
-16 -12 -16 -8 0 4 -8 0 -18 -9 -10 -10 -22 -14 -25 -10 -4 3 -7 1 -7 -6 0 -7
-4 -10 -9 -6 -5 3 -17 -2 -25 -11 -9 -8 -16 -13 -16 -9 0 4 -7 -1 -16 -9 -8
-9 -20 -14 -25 -11 -5 4 -9 1 -9 -5 0 -6 -4 -8 -10 -5 -5 3 -10 1 -10 -5 0 -6
-4 -8 -10 -5 -6 3 -10 1 -10 -6 0 -7 -3 -10 -6 -6 -4 3 -13 -1 -21 -9 -8 -8
-19 -12 -24 -9 -5 4 -9 1 -9 -5 0 -6 -4 -8 -10 -5 -5 3 -10 1 -10 -5 0 -6 -5
-8 -10 -5 -6 3 -10 1 -10 -4 0 -6 -3 -10 -7 -9 -16 3 -43 -15 -43 -27 0 -8 -6
-20 -13 -27 -16 -17 -16 -69 0 -86 7 -7 13 -20 13 -28 0 -8 4 -13 9 -10 5 3
12 -1 15 -10 3 -8 10 -12 16 -9 5 3 10 1 10 -5 0 -6 4 -9 9 -5 5 3 15 0 23 -7
7 -7 20 -14 28 -16 8 -2 17 -8 18 -13 2 -5 8 -7 13 -3 5 3 9 0 9 -6 0 -6 4 -9
9 -5 5 3 15 0 23 -7 7 -7 20 -14 28 -16 8 -2 17 -8 18 -13 2 -5 8 -7 13 -3 5
3 9 0 9 -6 0 -6 4 -9 9 -5 5 3 15 0 23 -7 7 -7 20 -14 28 -16 8 -2 17 -8 18
-13 2 -5 8 -7 13 -3 5 3 9 0 9 -6 0 -6 4 -8 10 -5 6 3 10 1 10 -5 0 -6 5 -8
10 -5 6 3 10 1 10 -5 0 -6 4 -9 9 -5 5 3 16 -2 25 -10 8 -9 17 -15 18 -14 8 5
48 -14 48 -22 0 -6 4 -8 9 -4 5 3 15 -1 23 -8 7 -7 18 -14 23 -15 27 -6 45
-14 45 -23 0 -5 3 -8 8 -8 25 4 34 -2 23 -14 -6 -8 -8 -16 -5 -19 3 -4 -4 -24
-15 -46 -11 -22 -18 -42 -15 -45 3 -3 0 -16 -7 -29 -7 -12 -12 -26 -11 -31 1
-4 -7 -25 -17 -46 -11 -21 -18 -41 -15 -44 3 -3 0 -16 -7 -29 -7 -12 -12 -26
-11 -31 1 -4 -7 -25 -17 -46 -11 -21 -18 -41 -15 -44 3 -3 -2 -16 -10 -29 -9
-14 -13 -27 -10 -30 3 -3 -4 -24 -15 -46 -11 -22 -17 -42 -14 -46 3 -3 0 -12
-7 -21 -7 -8 -13 -39 -12 -68 0 -44 4 -58 25 -79 14 -14 28 -23 31 -20 3 3 6
1 6 -5 0 -5 16 -9 35 -9 19 1 35 5 35 9 0 5 6 7 14 4 7 -3 18 -1 22 3 5 5 18
11 29 13 11 2 28 7 37 11 9 4 25 9 35 11 10 2 19 4 21 5 1 2 5 3 10 4 4 1 17
7 30 14 12 7 27 10 32 7 5 -3 11 -1 15 5 4 6 10 8 15 5 5 -3 11 -1 15 5 4 6
11 8 16 5 5 -4 9 -1 9 5 0 7 6 10 14 7 7 -3 18 -1 22 3 5 5 21 11 34 14 14 2
25 5 25 6 0 1 8 3 18 5 10 2 33 10 52 19 18 9 42 17 53 19 12 2 25 6 28 10 4
4 18 7 30 7 13 0 26 5 29 10 13 21 25 7 72 -88 26 -53 51 -98 56 -100 4 -2 7
-9 7 -15 0 -15 80 -179 98 -199 8 -10 12 -18 8 -18 -4 0 0 -7 8 -16 9 -8 14
-20 11 -25 -4 -5 -1 -9 5 -9 6 0 9 -4 6 -9 -4 -5 -1 -11 4 -13 6 -2 12 -10 13
-18 2 -8 7 -22 12 -30 5 -8 10 -22 12 -30 1 -8 7 -16 13 -18 5 -2 8 -7 6 -11
-3 -4 15 -17 39 -30 44 -23 44 -23 84 -5 28 13 45 30 57 57 9 20 21 37 26 37
5 0 7 4 3 9 -3 5 1 16 9 24 8 8 12 17 9 21 -4 3 -1 6 5 6 7 0 11 3 10 7 -4 13
24 73 33 73 5 0 8 3 7 8 -5 12 34 92 44 92 5 0 6 4 3 10 -3 5 -1 10 4 10 6 0
10 3 9 8 -5 13 24 72 35 72 6 0 8 3 4 6 -7 8 31 86 47 96 6 4 8 8 3 8 -9 0 32
83 46 92 6 3 23 0 39 -8 15 -8 28 -12 28 -8 0 4 6 1 13 -5 8 -6 17 -8 20 -5 4
4 18 -1 32 -10 14 -9 25 -14 25 -11 0 3 14 -1 30 -10 17 -9 30 -13 30 -9 0 4
6 1 13 -5 8 -6 16 -8 20 -5 3 3 16 0 29 -7 12 -7 27 -12 32 -11 5 2 12 -2 16
-7 3 -6 17 -13 30 -15 14 -2 27 -5 30 -6 3 -2 9 -2 13 -1 4 1 18 -4 30 -11 12
-7 25 -12 29 -13 3 0 10 -3 14 -8 4 -4 18 -7 30 -7 13 0 26 -5 29 -10 4 -6 10
-8 15 -5 5 3 20 0 32 -7 95 -52 206 8 184 99 -4 16 -8 38 -11 51 -2 13 -9 29
-15 37 -6 8 -9 18 -6 23 3 5 -4 26 -15 46 -11 21 -18 41 -15 44 4 3 -1 16 -9
29 -9 13 -14 27 -11 32 3 4 -4 25 -15 45 -11 21 -18 41 -15 44 4 3 -1 16 -9
29 -9 13 -14 27 -11 32 3 4 -4 25 -15 45 -11 21 -18 41 -15 44 3 3 1 11 -5 19
-7 7 -13 27 -15 44 -2 17 -10 40 -18 51 -18 25 -6 41 37 52 15 3 27 11 27 17
0 6 4 8 9 4 5 -3 16 2 25 10 9 9 26 18 38 20 12 3 25 10 30 17 4 7 8 9 8 5 0
-5 7 -1 16 8 9 9 29 19 45 22 16 3 29 10 29 16 0 6 3 8 6 4 4 -3 13 1 21 9 9
8 28 18 44 21 16 3 29 10 29 15 0 5 5 6 10 3 6 -3 10 -1 10 6 0 7 3 10 6 6 4
-3 13 0 21 8 8 8 23 15 34 15 10 0 19 5 19 11 0 5 4 8 9 4 5 -3 16 1 24 9 8 8
17 12 21 9 3 -4 6 -1 6 5 0 7 9 12 20 12 11 0 20 5 20 11 0 5 4 8 9 5 5 -3 12
1 15 10 3 8 10 12 16 9 13 -8 34 42 32 78 -1 37 -24 87 -39 87 -7 0 -13 5 -13
11 0 5 -4 8 -9 5 -5 -4 -11 -2 -13 4 -2 6 -14 12 -28 15 -14 3 -26 9 -28 15
-2 6 -8 8 -13 4 -5 -3 -9 0 -9 6 0 6 -4 8 -10 5 -5 -3 -10 -2 -10 3 0 6 -7 13
-16 16 -9 3 -12 2 -8 -5 3 -6 -3 -5 -15 3 -12 7 -21 16 -21 21 0 4 -4 5 -10 2
-5 -3 -10 -1 -10 5 0 6 -4 9 -9 6 -5 -4 -11 -2 -13 4 -2 6 -14 12 -28 15 -14
3 -26 9 -28 15 -2 6 -8 8 -13 4 -5 -3 -9 0 -9 6 0 6 -4 8 -10 5 -5 -3 -10 -1
-10 4 0 6 -9 11 -19 11 -11 0 -26 7 -34 15 -8 8 -17 11 -21 8 -3 -4 -6 -1 -6
6 0 7 -4 9 -10 6 -5 -3 -10 -2 -10 3 0 5 -13 12 -29 15 -16 3 -35 13 -44 21
-8 8 -17 12 -21 9 -3 -4 -6 -1 -6 5 0 7 -7 12 -15 12 -28 0 -65 23 -55 34 5 7
12 27 15 45 3 18 12 43 20 55 8 12 12 26 9 29 -4 4 -2 12 4 20 6 7 14 28 17
47 3 19 10 39 15 45 5 7 11 20 13 31 1 10 6 24 9 30 4 6 10 26 13 45 3 19 10
38 16 44 5 5 9 18 9 30 0 12 4 25 9 31 6 5 13 25 16 44 3 19 10 39 16 44 5 6
9 20 9 32 0 13 5 26 10 29 15 9 12 72 -4 104 -21 39 -107 74 -122 49 -3 -4
-15 -8 -28 -8 -12 0 -26 -4 -31 -9 -6 -6 -26 -13 -45 -16 -19 -3 -39 -10 -45
-16 -5 -5 -18 -9 -30 -9 -12 0 -25 -4 -30 -9 -6 -6 -26 -13 -45 -16 -19 -3
-40 -11 -47 -17 -7 -6 -13 -8 -13 -4 0 4 -13 0 -29 -8 -16 -9 -44 -18 -62 -21
-18 -3 -38 -9 -44 -13 -13 -10 -79 -32 -112 -38 -15 -3 -32 -9 -38 -14 -14
-11 -58 17 -50 31 4 5 1 9 -5 9 -6 0 -9 4 -5 9 3 5 -2 17 -11 25 -8 9 -12 16
-7 16 4 0 3 4 -4 8 -6 4 -13 14 -15 22 -2 8 -9 21 -16 28 -7 8 -10 18 -7 23 4
5 1 9 -5 9 -6 0 -9 4 -6 9 4 5 2 11 -3 13 -5 1 -11 10 -13 18 -2 8 -9 21 -16
28 -7 8 -10 18 -7 23 4 5 1 9 -6 9 -7 0 -10 3 -6 6 3 4 -1 13 -9 21 -8 8 -12
19 -9 24 4 5 1 9 -5 9 -6 0 -8 5 -5 10 3 6 1 10 -5 10 -6 0 -8 5 -5 10 3 6 1
10 -6 10 -7 0 -10 3 -6 6 3 4 -1 13 -9 21 -8 8 -12 19 -9 24 4 5 1 9 -5 9 -6
0 -8 5 -5 10 3 6 1 10 -5 10 -6 0 -8 5 -5 10 3 6 1 10 -6 10 -7 0 -10 3 -6 6
3 4 -1 13 -9 21 -8 8 -12 19 -9 24 4 5 1 9 -5 9 -6 0 -8 5 -5 10 3 6 1 10 -5
10 -6 0 -9 4 -6 9 3 5 -1 11 -9 15 -8 3 -15 12 -15 20 0 7 -11 17 -25 20 -14
4 -25 11 -25 16 0 15 -42 10 -71 -8z m235 -1021 c170 -60 309 -196 368 -361
71 -198 42 -392 -86 -563 -74 -100 -173 -171 -296 -213 -77 -27 -282 -27 -360
0 -189 63 -339 219 -395 411 -36 122 -20 305 37 420 27 53 94 142 138 183 70
65 194 127 290 146 61 11 246 -2 304 -23z"/>
</g>
</svg>
