<?xml version="1.0" encoding="UTF-8" standalone="no"?>
<!DOCTYPE svg PUBLIC "-//W3C//DTD SVG 1.1//EN" "http://www.w3.org/Graphics/SVG/1.1/DTD/svg11.dtd">
<svg xmlns="http://www.w3.org/2000/svg" version="1.1" viewBox="0 0 465 418" width="465.0pt" height="418.0pt">
<path d="M 0.00 0.00 L 465.00 0.00 L 465.00 418.00 L 0.00 418.00 L 0.00 0.00 Z" fill="transparent" />
<path d="M 207.06 27.86 C 215.68 30.39 224.09 33.01 231.71 37.92 C 246.67 31.15 262.99 27.12 279.16 24.53 C 296.64 22.96 314.05 23.71 330.79 29.38 C 337.78 31.87 344.56 34.25 350.92 38.12 C 357.91 41.92 364.15 46.72 370.59 51.34 C 376.18 55.26 380.97 60.44 385.61 65.42 C 393.89 75.18 401.39 85.55 406.82 97.18 C 415.15 115.68 418.80 135.76 418.73 156.00 C 418.37 174.69 414.46 193.18 407.57 210.54 C 405.61 214.65 403.50 218.65 401.97 222.95 C 399.87 229.16 395.31 233.80 392.88 239.88 C 391.27 244.11 388.28 247.18 385.83 250.88 C 382.95 255.61 379.16 259.64 376.44 264.46 C 373.73 269.01 369.69 272.41 367.08 277.07 C 359.06 286.97 350.48 296.49 342.06 306.04 C 336.40 311.72 330.75 317.40 324.79 322.76 C 297.21 349.56 267.03 371.72 235.67 393.78 C 233.76 394.76 232.10 396.71 229.98 395.09 C 212.81 383.02 195.79 370.76 179.37 357.67 C 163.77 345.79 149.09 332.64 135.34 318.66 C 124.24 308.02 114.22 296.40 104.66 284.38 C 95.66 272.74 86.44 262.31 78.90 250.04 C 73.82 241.78 68.27 233.34 64.25 224.56 C 57.84 211.46 52.26 197.34 49.42 183.00 C 48.14 175.05 47.17 167.07 46.81 159.02 C 46.14 152.61 47.04 146.42 47.12 140.01 C 48.43 122.22 53.58 104.81 62.25 89.21 C 69.86 76.75 79.14 64.78 90.28 55.27 C 102.59 43.67 117.30 36.04 132.99 30.08 C 156.92 21.89 182.69 21.07 207.06 27.86 Z" fill="#171d1f" />
<path d="M 174.00 56.27 C 182.09 56.78 190.24 57.40 198.02 59.89 C 207.17 62.92 215.89 66.59 223.76 72.25 C 226.80 74.57 229.35 77.62 232.18 80.22 C 235.12 77.81 237.34 74.47 240.55 72.55 C 244.13 70.39 247.72 68.20 251.40 66.23 C 274.49 54.17 302.69 53.82 326.76 63.23 C 338.07 67.15 348.00 75.27 356.68 83.31 C 364.79 91.58 371.36 101.17 376.49 111.53 C 381.05 122.47 383.87 134.18 384.54 146.03 C 386.06 159.58 384.14 173.04 380.16 186.02 C 377.90 194.95 374.01 202.85 370.18 211.17 C 366.08 220.46 360.02 228.98 354.77 237.72 C 340.75 258.55 324.59 278.07 306.29 295.29 C 297.53 304.22 287.87 312.25 278.58 320.63 C 268.10 329.89 257.11 338.48 245.98 346.93 C 241.22 350.33 236.78 354.15 232.61 358.26 C 228.68 355.64 225.41 352.21 221.49 349.54 C 217.72 346.99 214.04 344.35 210.55 341.41 C 191.83 325.95 173.33 311.11 156.24 293.76 C 145.33 282.75 135.96 270.76 125.88 259.07 C 114.69 244.77 104.63 229.75 96.47 213.50 C 92.00 205.73 88.85 197.41 86.01 188.94 C 81.98 176.77 80.33 163.75 80.02 150.98 C 80.99 139.14 82.24 126.07 87.13 115.13 C 88.81 110.87 90.10 106.63 92.83 102.87 C 95.81 98.74 97.20 94.33 100.63 90.61 C 107.42 83.40 114.91 76.77 123.02 71.08 C 138.13 61.01 155.72 55.17 174.00 56.27 Z" fill="#ffffff" />
<path d="M 307.43 100.47 C 311.49 99.08 316.56 101.72 319.42 104.55 C 325.88 110.53 321.71 123.22 313.03 124.40 C 307.67 124.79 301.45 121.68 299.73 116.30 C 297.25 109.91 300.84 102.43 307.43 100.47 Z" fill="#171d1f" />
<path d="M 151.35 101.41 C 158.68 98.77 167.24 106.35 166.56 113.81 C 165.78 119.11 161.05 124.43 155.81 125.65 C 148.55 126.38 142.33 118.95 143.01 111.97 C 143.40 107.12 146.82 103.03 151.35 101.41 Z" fill="#171d1f" />
<path d="M 226.49 110.52 C 242.14 107.72 258.52 115.92 267.16 128.94 C 273.46 138.76 275.25 151.96 270.79 162.86 C 266.73 172.50 260.43 180.92 251.44 186.44 C 239.43 193.62 223.91 192.60 211.81 186.18 C 204.95 182.47 199.83 175.40 196.53 168.49 C 189.98 154.83 191.68 137.94 200.84 125.88 C 207.29 117.77 216.42 112.67 226.49 110.52 Z" fill="#171d1f" />
<path d="M 318.46 134.55 C 322.89 133.51 327.38 135.31 330.53 138.43 C 334.87 142.13 333.54 150.04 329.11 153.15 C 322.63 158.23 310.92 153.56 310.89 144.96 C 310.45 140.01 313.32 135.27 318.46 134.55 Z" fill="#171d1f" />
<path d="M 144.22 136.45 C 148.44 137.51 150.81 139.92 153.02 143.51 C 153.10 145.51 153.25 147.67 152.88 149.64 C 151.55 152.36 149.21 155.05 146.50 156.44 C 143.83 157.47 140.42 157.14 137.74 156.25 C 133.86 155.00 131.44 151.34 130.49 147.54 C 129.67 145.11 131.09 142.38 132.60 140.53 C 135.65 137.28 139.64 134.86 144.22 136.45 Z" fill="#171d1f" />
<path d="M 323.43 174.75 C 323.24 185.74 322.98 196.49 320.34 207.21 C 318.61 215.74 316.39 224.69 312.63 232.56 C 310.86 236.40 308.33 239.66 306.24 243.31 C 303.10 249.00 298.80 253.84 295.26 259.29 C 289.20 266.40 282.42 273.22 275.70 279.71 C 262.56 292.82 247.85 304.70 233.04 315.87 C 228.30 313.74 224.84 310.26 220.55 307.38 C 210.60 299.81 201.23 291.28 191.56 283.36 C 181.80 274.72 173.19 265.00 165.41 254.54 C 157.10 243.67 151.76 231.39 147.44 218.49 C 145.07 210.86 143.66 202.96 143.06 194.99 C 142.88 188.77 143.05 182.54 143.00 176.31 C 158.49 184.63 174.61 193.68 188.24 204.83 C 193.07 208.71 198.61 210.97 203.81 214.24 C 209.99 218.35 216.20 222.22 221.57 227.42 C 225.42 230.84 227.98 235.46 232.06 238.31 C 233.50 237.31 234.61 236.07 235.80 234.81 C 243.99 226.13 253.23 218.61 263.38 212.34 C 273.73 205.05 283.97 197.57 294.32 190.28 C 300.94 185.43 308.69 183.03 315.49 178.53 C 317.98 176.89 320.63 175.74 323.43 174.75 Z" fill="#171d1f" />
</svg>